<svg version="1.1" id="Layer_1" xmlns="http://www.w3.org/2000/svg" xmlns:xlink="http://www.w3.org/1999/xlink" x="0px" y="0px"
	 width="100%" viewBox="0 0 720 1024" enable-background="new 0 0 720 1024" xml:space="preserve">
<path fill="#000000" opacity="1.000000" stroke="none" 
	d="
M478.292542,808.748291 
	C478.414337,815.111145 474.804962,818.996277 470.284271,822.912781 
	C483.170502,828.922607 485.714905,839.774658 485.424896,852.150085 
	C485.126587,864.879150 478.594604,873.871094 466.046967,875.663879 
	C449.547394,878.021240 432.806793,878.995911 416.353943,875.147766 
	C408.523499,873.316345 400.197357,871.725586 395.280640,864.015747 
	C394.291443,862.464661 392.655029,862.928589 391.166840,863.068176 
	C385.628845,863.587830 380.254333,862.864868 374.858002,861.478882 
	C369.913269,860.208740 367.163940,857.242371 365.856171,852.497925 
	C364.274719,846.760742 364.729889,840.917969 364.852631,835.104675 
	C364.917145,832.049927 364.511810,829.703979 361.271057,828.259827 
	C356.919067,826.320496 355.600891,821.973267 353.959473,817.186646 
	C351.390045,821.881165 348.743866,825.944092 344.971222,829.072449 
	C343.314270,830.446472 343.975220,832.132751 344.313049,833.697876 
	C345.307922,838.306885 345.334137,842.963623 345.140198,847.627930 
	C344.893646,853.557495 342.128174,857.535034 336.358734,859.644958 
	C329.208527,862.259766 322.077576,862.459167 314.781281,860.660217 
	C313.381042,860.314941 311.824036,859.334961 310.603699,860.847595 
	C303.764435,869.325684 294.164124,871.695557 284.054169,872.914734 
	C269.991638,874.610596 255.924408,876.307434 241.805389,873.383545 
	C238.345459,872.666992 235.093994,871.400391 232.021515,869.698364 
	C225.882797,866.297852 223.490051,861.329224 224.345947,854.319214 
	C225.283157,846.643005 226.627838,839.147095 232.021942,833.086487 
	C235.032928,829.703491 239.243027,827.989380 243.728409,825.304138 
	C231.698181,818.423401 231.635315,808.086731 233.663239,796.992798 
	C236.145370,783.414246 236.408615,769.507812 239.595184,756.032349 
	C240.523926,752.104858 238.207047,751.200195 235.127075,750.466492 
	C224.342453,747.897583 214.224716,743.791748 205.126358,737.304993 
	C199.714493,733.446716 196.749329,728.636902 195.375885,721.843689 
	C190.227478,696.378967 190.057648,670.556335 188.861115,644.802368 
	C188.703522,641.410400 187.798355,638.761902 185.603882,636.244385 
	C170.341461,618.735840 158.601746,599.059326 150.317368,577.396118 
	C144.201294,561.402893 142.885574,544.752747 144.251770,527.736023 
	C145.552139,511.538788 148.244705,495.733063 154.633316,480.679749 
	C161.739563,463.935486 171.476013,448.900452 183.971710,435.718933 
	C186.838654,432.694611 187.989853,429.698792 187.913422,425.528015 
	C187.521896,404.166168 188.608017,382.910522 194.855011,362.281982 
	C197.713409,352.843048 201.644196,343.816589 207.336136,335.693909 
	C211.008926,330.452698 213.460327,325.026215 214.425629,318.469696 
	C216.783554,302.454010 223.455124,287.869629 231.483475,273.943207 
	C233.789810,269.942474 233.799698,267.538849 229.004654,265.707397 
	C225.460068,264.353546 222.063919,262.405396 218.912964,260.263916 
	C208.132248,252.936935 206.488861,240.358871 214.966843,230.408737 
	C223.496902,220.397476 235.297852,215.603867 247.015381,210.738647 
	C249.010803,209.910126 251.105545,209.321671 253.151428,208.613678 
	C261.304230,205.792358 260.634735,207.997620 259.193665,198.325668 
	C257.267670,185.398849 261.030396,177.155563 272.631622,171.046555 
	C286.500549,163.743408 301.611267,160.421494 316.935516,157.803116 
	C341.729370,153.566681 366.382263,156.022308 391.010773,159.162888 
	C400.416138,160.362259 409.759521,162.073608 419.104675,163.703522 
	C421.876434,164.186981 424.635498,164.984100 427.268219,165.985031 
	C443.821259,172.278351 448.875732,180.694199 446.866577,198.370575 
	C446.753723,199.363373 446.552673,200.347000 446.461182,201.341202 
	C445.802429,208.497742 445.834747,208.388046 453.003113,210.123993 
	C462.572357,212.441360 471.878021,215.563507 480.765839,219.857880 
	C484.089783,221.463913 487.098114,223.547150 489.969971,225.834396 
	C505.381775,238.108810 505.059631,251.009399 488.954285,262.185608 
	C485.821808,264.359375 482.404541,266.164948 478.983002,267.867889 
	C475.666382,269.518616 474.953308,271.433319 476.403839,275.044525 
	C482.168610,289.396118 489.244385,303.298920 492.508942,318.546509 
	C494.386505,327.315918 495.720428,336.205902 497.128906,345.068634 
	C497.485626,347.313263 498.383209,349.096741 499.670380,350.900085 
	C512.456543,368.813354 523.134277,387.713287 526.660400,409.863098 
	C527.549011,415.444641 528.472961,421.038635 528.347168,426.720154 
	C528.252441,430.999359 529.959900,433.989655 533.226624,436.990997 
	C554.480774,456.518402 568.673706,480.031860 575.354126,508.500061 
	C585.095520,550.012085 576.294373,586.635010 549.477600,619.335266 
	C543.668762,626.418457 537.908508,633.541565 532.084473,640.612122 
	C531.100952,641.806030 530.391235,642.943298 530.402466,644.606567 
	C530.565308,668.656006 527.504883,692.383301 523.136963,715.973694 
	C522.621948,718.754944 521.725647,721.488464 521.452881,724.287659 
	C520.399475,735.099121 514.167664,741.252136 504.220734,744.580383 
	C494.708588,747.763184 485.073608,750.282898 475.092682,751.307068 
	C471.401459,751.685852 469.524872,752.567383 470.059235,757.138672 
	C471.667694,770.898865 475.279602,784.250488 477.717041,797.834351 
	C478.343201,801.324036 478.215424,804.799988 478.292542,808.748291 
M261.604767,264.114624 
	C259.054474,268.791229 256.484924,273.457458 253.957413,278.146362 
	C246.101166,292.720795 238.899384,307.598999 237.878052,324.460999 
	C237.364304,332.942780 233.925049,339.576355 228.459625,345.821411 
	C219.901550,355.600311 214.297211,367.175995 210.298630,379.453949 
	C205.842789,393.135925 205.610001,407.239471 206.834274,421.452728 
	C207.222000,425.954224 207.544540,429.616699 211.946991,432.930542 
	C239.277481,453.503052 270.091644,467.773804 300.456238,482.888397 
	C315.231140,490.242920 330.582031,496.098114 346.224609,501.374420 
	C351.711731,503.225281 356.337250,503.201843 361.552612,501.457886 
	C385.148834,493.567413 407.185089,482.142670 429.723724,471.827271 
	C455.149078,460.190704 478.205231,444.663422 501.494110,429.466949 
	C504.792999,427.314362 506.421082,424.765045 505.457733,420.758392 
	C504.020264,414.780060 502.984619,408.692596 501.294403,402.790070 
	C497.627502,389.984344 494.209229,376.944244 486.342285,365.950104 
	C482.484924,360.559357 480.438538,354.956482 479.612305,348.560822 
	C475.556122,317.161835 462.894684,289.211792 445.360199,263.188110 
	C442.195740,258.491608 438.182068,255.756958 432.734619,254.263077 
	C415.144226,249.439178 397.206909,247.049240 379.061157,246.046448 
	C346.753418,244.261002 314.555206,244.291061 282.488037,249.967209 
	C273.190308,251.612991 266.272858,255.113785 261.604767,264.114624 
M360.956360,605.491394 
	C341.505585,623.678894 336.059082,646.805298 338.975647,672.075256 
	C341.567535,694.531799 352.680084,713.919617 363.692932,733.246521 
	C367.473328,739.880859 372.321991,741.387756 379.271332,740.683716 
	C409.067108,737.665588 438.950195,735.313110 468.224915,728.548828 
	C477.941132,726.303711 487.845337,724.416870 496.104584,718.179810 
	C498.537872,716.342285 500.556976,714.450867 500.865662,710.998962 
	C501.785370,700.714783 502.812439,690.436279 502.863037,680.107178 
	C502.987091,654.787292 502.998566,629.463745 504.890808,604.196655 
	C505.648743,594.076416 506.612671,583.961975 507.863159,573.892090 
	C508.540741,568.435730 511.430084,566.463562 516.815430,566.678589 
	C523.048157,566.927368 526.670166,570.207336 527.103760,576.630432 
	C527.484741,582.274475 527.242859,587.957703 527.490601,593.614258 
	C527.730164,599.083984 528.243530,604.541748 528.636658,610.004761 
	C529.300964,610.065491 529.965271,610.126221 530.629639,610.186951 
	C546.175354,584.274902 557.508972,556.839172 555.530273,525.777405 
	C554.129761,503.792328 543.996765,484.987549 530.303162,467.917328 
	C529.175171,472.975433 528.754761,477.882782 528.278687,482.784729 
	C526.848083,497.515900 526.303955,512.353333 523.170837,526.883362 
	C521.263977,535.726501 516.804565,538.679199 507.707825,537.721436 
	C501.258240,537.042358 494.766479,536.772644 488.299316,536.248657 
	C485.066589,535.986755 483.537903,537.090393 483.117279,540.589905 
	C481.290283,555.790771 479.221619,570.963196 477.164124,586.135498 
	C476.113525,593.883179 475.054260,601.635620 473.713013,609.336060 
	C472.640045,615.496277 471.167389,616.038757 465.652374,613.484070 
	C462.098175,611.837585 459.402344,609.088684 456.321960,606.836731 
	C440.533905,595.294922 423.783905,587.062744 403.340393,588.043396 
	C387.178711,588.818665 372.910400,593.116089 360.956360,605.491394 
M321.920441,620.604553 
	C323.990784,615.880981 325.693970,611.005066 328.367523,606.539062 
	C333.549225,597.883118 332.815735,596.156311 322.988983,593.025146 
	C322.040497,592.722900 321.071198,592.442139 320.090057,592.292664 
	C305.240387,590.030518 290.956726,593.037720 276.860504,597.210144 
	C266.284454,600.340576 257.838623,607.385071 248.788864,613.270020 
	C243.067398,616.990662 241.747528,616.601746 239.649490,610.324585 
	C235.919052,599.163635 235.594559,587.427856 233.736710,575.953918 
	C231.981522,565.113953 230.484467,554.233704 227.315063,543.678040 
	C226.085480,539.583008 223.732208,537.348938 219.103943,537.112000 
	C213.135513,536.806519 207.184784,535.889282 201.263855,534.989197 
	C193.745148,533.846313 190.523529,530.347229 189.736069,522.790955 
	C188.320984,509.212433 187.011765,495.629395 186.609955,481.966431 
	C186.507538,478.484283 186.645538,474.742706 183.621872,470.492065 
	C172.309555,491.997742 163.280548,513.068726 164.079407,537.197510 
	C164.998505,564.958496 173.391052,590.120544 189.758163,612.714355 
	C190.883438,609.041443 191.250854,605.464233 191.749496,601.905396 
	C193.042679,592.675476 192.157120,583.219971 194.497940,574.118469 
	C195.294815,571.020142 196.746796,567.672424 200.730255,568.157410 
	C204.737930,568.645325 205.137589,572.074524 205.210190,575.421509 
	C205.419510,585.072266 205.477493,594.713318 206.003540,604.372437 
	C207.289154,627.978638 208.719009,651.537292 212.263809,674.947144 
	C214.131271,687.279724 214.978043,699.761292 217.261673,712.047180 
	C217.850311,715.214050 218.374634,718.104370 222.341049,719.110596 
	C233.149033,721.852539 243.746796,725.588989 254.666611,727.690979 
	C280.376465,732.640015 306.387604,735.153076 332.604065,735.050476 
	C335.008789,735.041077 337.565765,735.593567 340.356628,733.989929 
	C335.814514,726.737061 332.313751,719.071106 328.605072,711.507507 
	C314.316315,682.366577 311.465363,652.352600 321.920441,620.604553 
M245.014679,509.471130 
	C230.719604,494.787689 218.742691,478.065216 205.061111,462.147766 
	C202.256500,466.713470 204.036560,470.163696 204.308838,473.527283 
	C205.221710,484.804230 206.329178,496.065552 207.376282,507.331543 
	C207.788055,511.761902 209.378632,514.437805 214.622284,514.999329 
	C221.427429,515.728027 228.259216,515.662537 235.047256,516.431152 
	C240.202347,517.014893 243.265778,519.645813 244.354553,524.676819 
	C246.008286,532.318298 247.857452,539.922974 249.288773,547.605713 
	C250.842224,555.943848 251.909164,564.372009 253.413132,572.720398 
	C253.857941,575.189575 254.381027,578.836182 258.245972,577.388062 
	C271.507538,572.419067 285.265381,570.513306 299.295044,569.890869 
	C300.871765,569.820862 302.869629,569.992249 303.466949,567.914062 
	C303.957153,566.208862 302.613251,565.111145 301.564087,564.095947 
	C292.586212,555.408508 284.506500,545.859314 275.266388,537.397766 
	C265.319977,528.289429 254.617325,519.990417 245.014679,509.471130 
M457.761536,558.439514 
	C459.080750,546.864990 460.137634,535.252258 461.815857,523.730042 
	C462.849731,516.631653 466.063416,514.273804 473.367706,513.820007 
	C479.351196,513.448242 485.340363,513.029663 491.331024,512.955627 
	C495.853088,512.899658 498.108978,511.250397 497.995819,506.445374 
	C497.906006,502.633087 498.557190,498.809143 498.619324,494.986145 
	C498.722748,488.623016 499.425323,482.218719 498.444366,474.427094 
	C467.873444,508.843231 433.587677,537.362549 403.208740,570.019409 
	C412.551300,570.612793 421.452271,571.365417 430.148499,573.713989 
	C438.835541,576.060120 446.153931,581.305786 454.315369,585.846619 
	C456.394745,576.577515 456.715179,567.918091 457.761536,558.439514 
M392.686310,509.286011 
	C390.195465,510.220062 387.706787,511.160034 385.213318,512.087036 
	C376.420197,515.355896 376.420593,515.353516 381.917206,523.127441 
	C382.397369,523.806519 382.845703,524.507996 383.321716,525.190125 
	C388.418213,532.492859 393.517273,539.793762 399.130096,547.831970 
	C422.993896,524.448303 448.271027,503.152527 467.703522,476.151428 
	C443.677185,488.968231 418.675110,499.284637 392.686310,509.286011 
M309.629395,537.843567 
	C314.363159,529.914185 320.436218,522.905579 325.976837,515.228394 
	C297.348755,497.971466 267.206787,485.120239 238.218689,469.426025 
	C238.071152,471.759094 239.252884,473.018860 240.181763,474.297974 
	C258.262054,499.195740 281.494568,518.929382 304.767792,538.616882 
	C306.266205,539.884460 307.890778,540.809570 309.629395,537.843567 
M359.157471,578.695496 
	C366.867035,572.527222 366.977814,571.828857 361.456909,563.877502 
	C360.130402,561.967041 358.902130,559.970886 357.414551,558.193359 
	C354.668762,554.912170 354.721863,551.761780 356.974243,548.188293 
	C360.629913,542.388367 363.256195,536.338928 363.282196,529.117920 
	C363.310425,521.280884 361.363098,518.873169 353.331238,519.366760 
	C344.743469,519.894653 341.963074,523.056396 345.155426,530.739563 
	C349.946198,542.269775 350.182281,553.145630 343.765106,563.982788 
	C343.596649,564.267273 343.479218,564.582336 343.341614,564.884827 
	C340.265137,571.649414 341.090118,573.734497 347.935059,580.156494 
	C352.185547,584.144287 355.168823,580.842407 359.157471,578.695496 
M268.688629,765.447510 
	C269.373413,756.258728 269.338531,756.206116 262.604858,756.355347 
	C261.465363,757.889587 261.492615,759.753723 261.288940,761.545959 
	C259.791809,774.718811 258.468994,787.914551 256.717010,801.053223 
	C256.235504,804.664185 256.500977,806.723755 260.538940,807.360779 
	C264.922699,808.052490 264.568970,804.888184 264.843262,802.396851 
	C266.166290,790.379333 267.375824,778.349365 268.688629,765.447510 
M289.376129,794.563293 
	C288.694702,800.764709 287.790131,806.954834 288.096741,813.171204 
	C297.577454,814.660645 297.707489,814.558777 297.706909,805.521423 
	C297.706024,792.226929 297.725250,778.932312 297.651581,765.638184 
	C297.640625,763.656372 298.468506,760.715576 295.177399,760.643250 
	C292.032074,760.574036 292.523376,763.415039 292.314056,765.481201 
	C291.360901,774.888855 290.420959,784.297791 289.376129,794.563293 
M387.702148,796.499146 
	C387.729584,788.029114 387.653198,779.565308 386.910583,771.115601 
	C386.682831,768.524414 386.097809,766.463806 383.000763,766.450806 
	C379.599060,766.436523 380.140533,769.019226 380.113647,771.094238 
	C380.023346,778.058777 380.354156,785.012939 379.433441,791.978516 
	C378.718048,797.390930 378.613586,802.894714 378.436066,808.364258 
	C378.292389,812.791260 381.825623,813.367981 384.945526,813.553467 
	C388.796600,813.782349 387.598114,810.524170 387.679626,808.458557 
	C387.823608,804.810242 387.709198,801.151794 387.702148,796.499146 
M443.603516,793.026245 
	C444.088837,796.469666 444.639862,799.905457 445.036896,803.359070 
	C445.311371,805.746582 446.283661,806.989380 448.894165,806.678467 
	C451.468750,806.371826 452.929565,805.191711 452.673553,802.488220 
	C452.407806,799.682190 452.033722,796.885864 451.677704,794.088989 
	C450.357910,783.721436 449.001312,773.358521 447.716339,762.986694 
	C447.404907,760.472656 446.381744,758.995300 443.606506,759.087585 
	C440.603668,759.187378 440.087830,761.018188 440.286499,763.468018 
	C440.380402,764.626160 440.426178,765.789307 440.557587,766.942932 
	C441.514465,775.343567 442.487518,783.742371 443.603516,793.026245 
M320.791718,813.003418 
	C321.618317,812.927917 322.449188,812.883850 323.270844,812.772034 
	C329.542297,811.917847 329.727722,811.444275 329.065887,805.209595 
	C328.100922,796.118713 327.506104,786.996765 327.672455,777.835022 
	C327.723450,775.026611 327.475220,772.189392 327.085449,769.404358 
	C326.819702,767.505249 326.595795,765.101746 323.695984,765.435303 
	C321.125488,765.730957 321.404175,767.887878 321.335022,769.680481 
	C320.918518,780.474182 320.350647,791.266785 320.228851,802.064270 
	C320.188721,805.621643 318.096313,809.194641 320.791718,813.003418 
M414.240631,812.178772 
	C414.560944,814.469666 413.610870,817.584900 417.849609,817.150757 
	C421.495361,816.777222 421.367004,814.522339 421.004028,811.797119 
	C419.140350,797.804565 417.359161,783.801025 415.546600,769.801636 
	C414.984344,765.458984 412.891510,764.421082 409.033356,766.900330 
	C410.757324,781.701843 412.482452,796.513428 414.240631,812.178772 
M320.188141,554.140564 
	C322.768250,558.976624 327.619385,560.707275 331.784424,563.348938 
	C338.728882,554.377014 338.197601,547.172424 329.992096,537.725098 
	C325.430298,542.205261 321.597443,547.012634 320.188141,554.140564 
M383.522186,555.838623 
	C381.126251,550.053894 378.141541,544.682190 372.878204,539.766113 
	C370.908844,544.374023 369.180786,548.090515 367.747864,551.917542 
	C367.100250,553.647278 371.875305,563.390076 373.495758,564.206726 
	C373.910034,564.415527 374.572235,564.656799 374.878479,564.475159 
	C378.326141,562.430176 382.595520,561.260620 383.522186,555.838623 
M356.373688,795.708618 
	C357.017365,785.784119 356.999786,775.904663 354.993713,765.356995 
	C348.989471,773.386230 349.130341,790.800903 354.698669,802.886536 
	C355.194183,800.714294 355.671753,798.620544 356.373688,795.708618 
z"/>
<path fill="#000000" opacity="1.000000" stroke="none" 
	d="
M339.631287,466.620056 
	C315.249573,460.103333 300.031281,443.576019 288.797272,422.593689 
	C285.576202,416.577484 283.467010,410.054993 281.499481,403.501282 
	C280.508087,400.199127 282.187012,398.955658 284.749451,397.904175 
	C287.489441,396.779877 289.264282,397.788605 290.394867,400.285400 
	C291.835571,403.467072 292.920593,406.846100 294.658905,409.850769 
	C305.329590,428.294922 322.662994,437.685303 341.976868,444.323486 
	C363.767578,451.812988 381.276245,444.390686 396.585541,428.855042 
	C404.341461,420.984436 411.381866,412.611237 416.788025,402.927582 
	C417.511139,401.632294 418.464355,400.441681 419.445129,399.319824 
	C420.783600,397.788727 422.579498,397.378204 424.456818,398.020813 
	C426.486359,398.715515 426.322388,400.590210 426.265778,402.237671 
	C426.079559,407.657593 424.158813,412.662720 422.328674,417.659882 
	C411.759308,446.519623 390.451233,462.121521 360.794159,467.403534 
	C353.812500,468.646973 346.893402,468.754883 339.631287,466.620056 
z"/>
<path fill="#000000" opacity="1.000000" stroke="none" 
	d="
M332.331909,367.501648 
	C336.543457,357.477661 340.640686,347.830139 345.993225,338.783691 
	C346.754578,337.497009 347.570679,336.212982 348.548370,335.090637 
	C350.198334,333.196625 352.160583,330.959106 354.842377,332.398315 
	C357.402252,333.772186 356.429260,336.600769 355.743195,338.738556 
	C352.286255,349.510193 348.660126,360.227478 345.110382,370.969452 
	C343.269165,376.541168 342.284882,382.272766 342.284485,388.136871 
	C342.283905,396.392792 346.265442,400.966095 354.456451,401.673492 
	C363.902985,402.489288 373.054779,401.294495 381.547363,396.639160 
	C383.038544,395.821747 384.811127,393.869263 386.442230,395.577271 
	C388.391815,397.618744 386.473511,399.682037 385.239105,401.324799 
	C377.973694,410.993866 367.509003,414.886780 356.200439,417.348297 
	C350.281921,418.636566 344.594757,418.380341 339.169525,415.703064 
	C327.799530,410.092072 323.243011,399.831818 326.298615,387.416565 
	C327.928802,380.792999 329.861633,374.272034 332.331909,367.501648 
z"/>
<path fill="#000000" opacity="1.000000" stroke="none" 
	d="
M411.297302,322.982361 
	C412.738342,331.961853 408.328918,338.466705 399.573883,340.747742 
	C391.986176,342.724640 383.611267,338.174805 380.718872,330.504395 
	C378.041046,323.403046 381.131836,316.221680 388.393707,312.672089 
	C395.744812,309.078827 405.266418,311.673431 409.475098,318.500031 
	C410.246460,319.751160 410.663849,321.220551 411.297302,322.982361 
M406.626038,322.069183 
	C406.929749,320.112274 406.086731,318.868988 404.178925,318.506470 
	C402.899750,318.263428 401.926361,318.960358 401.490509,320.147766 
	C401.011047,321.454010 401.092072,322.764984 402.306976,323.696045 
	C404.037323,325.022156 405.326538,324.271454 406.626038,322.069183 
z"/>
<path fill="#000000" opacity="1.000000" stroke="none" 
	d="
M328.826538,317.477356 
	C333.086456,327.043091 330.621765,335.422791 322.668274,339.461578 
	C315.715973,342.991943 308.033844,341.012970 303.874115,334.619934 
	C299.701202,328.206726 300.829041,318.977264 306.375793,314.148285 
	C312.067444,309.193115 320.796539,309.345795 326.329956,314.536987 
	C327.170471,315.325531 327.855774,316.279541 328.826538,317.477356 
M319.749115,322.684448 
	C321.699585,324.333038 323.482300,324.258636 324.476532,321.784821 
	C325.119568,320.184937 324.348877,318.659790 322.547882,318.412567 
	C319.879730,318.046387 318.950134,319.543396 319.749115,322.684448 
z"/>
<path fill="#000000" opacity="1.000000" stroke="none" 
	d="
M335.921967,282.396637 
	C336.179443,284.402374 336.792358,286.291840 334.872772,287.201324 
	C332.894287,288.138702 331.899994,286.363403 330.810211,285.175110 
	C329.801025,284.074738 328.931519,282.843719 327.898621,281.768066 
	C319.884583,273.422241 311.978607,272.675110 302.779053,279.712738 
	C299.181946,282.464539 296.026031,285.793060 292.606201,288.916382 
	C291.892944,288.092529 291.274658,287.696198 291.311279,287.374420 
	C292.366821,278.100922 296.113892,269.860046 303.685669,264.528900 
	C312.830017,258.090515 325.416626,262.094910 331.449371,272.527985 
	C333.184418,275.528625 334.375397,278.843933 335.921967,282.396637 
z"/>
<path fill="#000000" opacity="1.000000" stroke="none" 
	d="
M421.428986,283.177887 
	C421.233459,286.160980 420.108337,286.838959 417.924561,285.159760 
	C417.665039,284.960205 417.468353,284.677490 417.248627,284.427917 
	C404.348846,269.776123 395.981140,272.936401 383.608002,281.745941 
	C382.229584,282.727356 380.830750,284.982574 378.923492,283.579865 
	C376.716278,281.956512 378.642639,279.904938 379.388550,278.225342 
	C383.197601,269.648651 388.328674,261.788300 398.805145,262.101318 
	C407.662170,262.365906 416.626678,267.966522 420.562561,279.943726 
	C420.873016,280.888458 421.116882,281.855072 421.428986,283.177887 
z"/>
<path fill="#000000" opacity="1.000000" stroke="none" 
	d="
M371.652161,627.937256 
	C380.643097,633.875671 381.481628,644.922546 373.691620,650.178650 
	C369.178162,653.223877 364.056702,652.792603 359.971710,649.023254 
	C355.478149,644.876953 354.437347,637.795105 357.551941,632.558533 
	C360.390717,627.785645 365.535980,625.996948 371.652161,627.937256 
z"/>
<path fill="#000000" opacity="1.000000" stroke="none" 
	d="
M358.495300,670.299377 
	C365.163513,666.589355 370.520477,667.420166 373.709900,672.378296 
	C377.067322,677.597656 375.426605,685.827637 370.185059,689.334290 
	C366.431854,691.845276 362.357727,692.349243 358.432892,689.838562 
	C354.391144,687.253113 352.873138,683.303406 353.610779,678.612732 
	C354.116028,675.399536 355.613495,672.630371 358.495300,670.299377 
z"/>
<path fill="#000000" opacity="1.000000" stroke="none" 
	d="
M383.927338,727.191345 
	C377.097046,731.429077 371.155640,727.514648 369.202759,723.467957 
	C366.658478,718.195740 369.071228,710.771851 374.252136,707.924438 
	C378.469574,705.606506 383.649597,706.043823 386.770264,708.981201 
	C390.117554,712.131958 390.930145,717.335144 388.723175,721.795898 
	C387.682770,723.898743 386.339539,725.772461 383.927338,727.191345 
z"/>
</svg>